<svg xmlns="http://www.w3.org/2000/svg" xmlns:xlink="http://www.w3.org/1999/xlink" width="250" zoomAndPan="magnify" viewBox="0 0 187.5 37.5" height="50" preserveAspectRatio="xMidYMid meet" version="1.0"><defs><g/><clipPath id="da4acba8b2"><path d="M 0.988281 0 L 186.019531 0 L 186.019531 37.007812 L 0.988281 37.007812 Z M 0.988281 0 " clip-rule="nonzero"/></clipPath><clipPath id="9a2578719a"><path d="M 31 0 L 152 0 L 152 37.007812 L 31 37.007812 Z M 31 0 " clip-rule="nonzero"/></clipPath><clipPath id="211d167734"><rect x="0" width="121" y="0" height="38"/></clipPath></defs><g clip-path="url(#da4acba8b2)"><path fill="#ffffff" d="M 0.988281 0 L 186.019531 0 L 186.019531 37.007812 L 0.988281 37.007812 Z M 0.988281 0 " fill-opacity="1" fill-rule="nonzero"/><path fill="#ffffff" d="M 0.988281 0 L 186.019531 0 L 186.019531 37.007812 L 0.988281 37.007812 Z M 0.988281 0 " fill-opacity="1" fill-rule="nonzero"/></g><g clip-path="url(#9a2578719a)"><g transform="matrix(1, 0, 0, 1, 31, -0.000000000000001478)"><g clip-path="url(#211d167734)"><g fill="#000000" fill-opacity="1"><g transform="translate(1.641865, 25.030332)"><g><path d="M 17 -19.96875 C 16.789062 -19.488281 16 -18.457031 14.625 -16.875 C 14.4375 -16.9375 14.179688 -17.171875 13.859375 -17.578125 C 13.535156 -17.984375 13.207031 -18.289062 12.875 -18.5 C 12.332031 -18.8125 11.625 -18.976562 10.75 -19 C 9.769531 -19 8.769531 -18.46875 7.75 -17.40625 C 6.457031 -16.050781 5.851562 -14.28125 5.9375 -12.09375 C 6 -10.070312 6.613281 -8.519531 7.78125 -7.4375 C 8.613281 -6.664062 9.5 -6.257812 10.4375 -6.21875 C 11.019531 -6.175781 11.894531 -6.488281 13.0625 -7.15625 C 13.226562 -7.53125 13.3125 -7.976562 13.3125 -8.5 C 13.3125 -8.894531 13.226562 -9.21875 13.0625 -9.46875 C 12.769531 -9.53125 12.488281 -9.5625 12.21875 -9.5625 C 11.695312 -9.5625 11.039062 -9.363281 10.25 -8.96875 C 10.0625 -9.46875 9.96875 -10.207031 9.96875 -11.1875 C 9.96875 -12.269531 10.050781 -13.019531 10.21875 -13.4375 C 10.65625 -13.5625 11.207031 -13.625 11.875 -13.625 C 13.457031 -13.625 14.882812 -13.375 16.15625 -12.875 C 16.425781 -12.5 16.6875 -10.625 16.9375 -7.25 C 17.144531 -4.582031 17.25 -2.75 17.25 -1.75 C 16.894531 -1.476562 16.195312 -1.109375 15.15625 -0.640625 C 14.113281 -0.171875 13.5 0.0625 13.3125 0.0625 C 13.25 -0.332031 13.226562 -0.664062 13.25 -0.9375 C 12.894531 -0.769531 12.3125 -0.582031 11.5 -0.375 C 10.4375 -0.0820312 9.5625 0.0625 8.875 0.0625 C 6.394531 0.0625 4.296875 -1.113281 2.578125 -3.46875 C 0.859375 -5.820312 0 -8.6875 0 -12.0625 C 0 -15.539062 0.800781 -18.4375 2.40625 -20.75 C 4.09375 -23.144531 6.257812 -24.34375 8.90625 -24.34375 C 10.40625 -24.320312 11.769531 -23.957031 13 -23.25 C 13.769531 -22.8125 14.59375 -22.132812 15.46875 -21.21875 C 16.238281 -20.445312 16.75 -20.03125 17 -19.96875 Z M 17 -19.96875 "/></g></g></g><g fill="#000000" fill-opacity="1"><g transform="translate(21.264339, 25.030332)"><g><path d="M 10.28125 -20.3125 C 8.78125 -20.4375 7.34375 -19.46875 5.96875 -17.40625 C 5.175781 -16.21875 4.78125 -14.800781 4.78125 -13.15625 C 4.78125 -11.695312 5.09375 -10.46875 5.71875 -9.46875 C 6.40625 -8.363281 7.34375 -7.757812 8.53125 -7.65625 C 10.09375 -7.53125 11.394531 -8.175781 12.4375 -9.59375 C 13.4375 -10.90625 13.9375 -12.445312 13.9375 -14.21875 C 13.9375 -15.550781 13.644531 -16.8125 13.0625 -18 C 12.382812 -19.4375 11.457031 -20.207031 10.28125 -20.3125 Z M 17.1875 -11.8125 C 17.226562 -8.75 16.632812 -6.101562 15.40625 -3.875 C 13.882812 -1.144531 11.707031 0.195312 8.875 0.15625 C 6.394531 0.113281 4.289062 -1.09375 2.5625 -3.46875 C 0.832031 -5.84375 -0.03125 -8.726562 -0.03125 -12.125 C -0.03125 -15.582031 0.78125 -18.46875 2.40625 -20.78125 C 4.070312 -23.195312 6.226562 -24.394531 8.875 -24.375 C 11.375 -24.351562 13.394531 -23.101562 14.9375 -20.625 C 16.394531 -18.269531 17.144531 -15.332031 17.1875 -11.8125 Z M 17.1875 -11.8125 "/></g></g></g><g fill="#000000" fill-opacity="1"><g transform="translate(40.566385, 25.030332)"><g><path d="M 10.28125 -20.3125 C 8.78125 -20.4375 7.34375 -19.46875 5.96875 -17.40625 C 5.175781 -16.21875 4.78125 -14.800781 4.78125 -13.15625 C 4.78125 -11.695312 5.09375 -10.46875 5.71875 -9.46875 C 6.40625 -8.363281 7.34375 -7.757812 8.53125 -7.65625 C 10.09375 -7.53125 11.394531 -8.175781 12.4375 -9.59375 C 13.4375 -10.90625 13.9375 -12.445312 13.9375 -14.21875 C 13.9375 -15.550781 13.644531 -16.8125 13.0625 -18 C 12.382812 -19.4375 11.457031 -20.207031 10.28125 -20.3125 Z M 17.1875 -11.8125 C 17.226562 -8.75 16.632812 -6.101562 15.40625 -3.875 C 13.882812 -1.144531 11.707031 0.195312 8.875 0.15625 C 6.394531 0.113281 4.289062 -1.09375 2.5625 -3.46875 C 0.832031 -5.84375 -0.03125 -8.726562 -0.03125 -12.125 C -0.03125 -15.582031 0.78125 -18.46875 2.40625 -20.78125 C 4.070312 -23.195312 6.226562 -24.394531 8.875 -24.375 C 11.375 -24.351562 13.394531 -23.101562 14.9375 -20.625 C 16.394531 -18.269531 17.144531 -15.332031 17.1875 -11.8125 Z M 17.1875 -11.8125 "/></g></g></g><g fill="#000000" fill-opacity="1"><g transform="translate(59.868431, 25.030332)"><g><path d="M 17 -19.96875 C 16.789062 -19.488281 16 -18.457031 14.625 -16.875 C 14.4375 -16.9375 14.179688 -17.171875 13.859375 -17.578125 C 13.535156 -17.984375 13.207031 -18.289062 12.875 -18.5 C 12.332031 -18.8125 11.625 -18.976562 10.75 -19 C 9.769531 -19 8.769531 -18.46875 7.75 -17.40625 C 6.457031 -16.050781 5.851562 -14.28125 5.9375 -12.09375 C 6 -10.070312 6.613281 -8.519531 7.78125 -7.4375 C 8.613281 -6.664062 9.5 -6.257812 10.4375 -6.21875 C 11.019531 -6.175781 11.894531 -6.488281 13.0625 -7.15625 C 13.226562 -7.53125 13.3125 -7.976562 13.3125 -8.5 C 13.3125 -8.894531 13.226562 -9.21875 13.0625 -9.46875 C 12.769531 -9.53125 12.488281 -9.5625 12.21875 -9.5625 C 11.695312 -9.5625 11.039062 -9.363281 10.25 -8.96875 C 10.0625 -9.46875 9.96875 -10.207031 9.96875 -11.1875 C 9.96875 -12.269531 10.050781 -13.019531 10.21875 -13.4375 C 10.65625 -13.5625 11.207031 -13.625 11.875 -13.625 C 13.457031 -13.625 14.882812 -13.375 16.15625 -12.875 C 16.425781 -12.5 16.6875 -10.625 16.9375 -7.25 C 17.144531 -4.582031 17.25 -2.75 17.25 -1.75 C 16.894531 -1.476562 16.195312 -1.109375 15.15625 -0.640625 C 14.113281 -0.171875 13.5 0.0625 13.3125 0.0625 C 13.25 -0.332031 13.226562 -0.664062 13.25 -0.9375 C 12.894531 -0.769531 12.3125 -0.582031 11.5 -0.375 C 10.4375 -0.0820312 9.5625 0.0625 8.875 0.0625 C 6.394531 0.0625 4.296875 -1.113281 2.578125 -3.46875 C 0.859375 -5.820312 0 -8.6875 0 -12.0625 C 0 -15.539062 0.800781 -18.4375 2.40625 -20.75 C 4.09375 -23.144531 6.257812 -24.34375 8.90625 -24.34375 C 10.40625 -24.320312 11.769531 -23.957031 13 -23.25 C 13.769531 -22.8125 14.59375 -22.132812 15.46875 -21.21875 C 16.238281 -20.445312 16.75 -20.03125 17 -19.96875 Z M 17 -19.96875 "/></g></g></g><g fill="#000000" fill-opacity="1"><g transform="translate(79.490906, 25.030332)"><g><path d="M 0 0 C 0 -1.394531 0.0703125 -2.84375 0.21875 -4.34375 C 0.363281 -5.84375 0.5 -6.644531 0.625 -6.75 C 0.6875 -6.75 0.8125 -6.632812 1 -6.40625 C 1.1875 -6.175781 1.363281 -6.0625 1.53125 -6.0625 C 1.632812 -6.0625 1.738281 -6.101562 1.84375 -6.1875 C 2.113281 -6.394531 2.332031 -7.46875 2.5 -9.40625 C 2.625 -10.820312 2.6875 -11.988281 2.6875 -12.90625 C 2.6875 -13.820312 2.625 -15.101562 2.5 -16.75 C 2.332031 -18.894531 2.125 -20.03125 1.875 -20.15625 C 1.8125 -20.195312 1.738281 -20.21875 1.65625 -20.21875 C 1.53125 -20.21875 1.367188 -20.132812 1.171875 -19.96875 C 0.972656 -19.800781 0.84375 -19.71875 0.78125 -19.71875 C 0.71875 -19.71875 0.65625 -19.75 0.59375 -19.8125 C 0.46875 -19.976562 0.347656 -20.457031 0.234375 -21.25 C 0.117188 -22.039062 0.0625 -22.738281 0.0625 -23.34375 C 0.0625 -23.84375 0.101562 -24.132812 0.1875 -24.21875 C 0.351562 -24.382812 1.066406 -24.550781 2.328125 -24.71875 C 3.585938 -24.882812 4.789062 -24.96875 5.9375 -24.96875 C 6.8125 -24.96875 7.488281 -24.90625 7.96875 -24.78125 C 8.488281 -23.09375 8.75 -21.757812 8.75 -20.78125 C 8.75 -20.507812 8.71875 -20.300781 8.65625 -20.15625 C 8.53125 -20.15625 8.285156 -20.203125 7.921875 -20.296875 C 7.554688 -20.390625 7.28125 -20.4375 7.09375 -20.4375 C 6.882812 -20.4375 6.726562 -20.382812 6.625 -20.28125 C 6.476562 -20.113281 6.40625 -19.207031 6.40625 -17.5625 C 6.40625 -15.375 6.519531 -13.195312 6.75 -11.03125 C 7 -8.507812 7.320312 -7.101562 7.71875 -6.8125 C 8.757812 -6.019531 9.800781 -5.625 10.84375 -5.625 C 11.632812 -5.625 12.789062 -5.96875 14.3125 -6.65625 C 15.832031 -7.34375 17.050781 -7.675781 17.96875 -7.65625 C 17.96875 -6.488281 17.738281 -5.082031 17.28125 -3.4375 C 16.820312 -1.789062 16.320312 -0.644531 15.78125 0 Z M 0 0 "/></g></g></g><g fill="#000000" fill-opacity="1"><g transform="translate(99.632171, 25.030332)"><g><path d="M 0 0 C 0 -1.394531 0.0703125 -2.84375 0.21875 -4.34375 C 0.363281 -5.84375 0.5 -6.644531 0.625 -6.75 C 0.6875 -6.75 0.8125 -6.632812 1 -6.40625 C 1.1875 -6.175781 1.363281 -6.0625 1.53125 -6.0625 C 1.632812 -6.0625 1.738281 -6.101562 1.84375 -6.1875 C 2.113281 -6.394531 2.351562 -7.46875 2.5625 -9.40625 C 2.726562 -10.96875 2.8125 -12.144531 2.8125 -12.9375 C 2.8125 -13.894531 2.75 -15.238281 2.625 -16.96875 C 2.457031 -19.257812 2.25 -20.46875 2 -20.59375 C 1.9375 -20.632812 1.863281 -20.65625 1.78125 -20.65625 C 1.65625 -20.65625 1.492188 -20.570312 1.296875 -20.40625 C 1.097656 -20.238281 0.96875 -20.15625 0.90625 -20.15625 C 0.84375 -20.15625 0.78125 -20.1875 0.71875 -20.25 C 0.59375 -20.414062 0.457031 -20.832031 0.3125 -21.5 C 0.164062 -22.164062 0.09375 -22.738281 0.09375 -23.21875 C 0.09375 -23.53125 0.132812 -23.726562 0.21875 -23.8125 C 0.40625 -24 1.394531 -24.207031 3.1875 -24.4375 C 5.25 -24.707031 7.351562 -24.84375 9.5 -24.84375 C 11.539062 -24.84375 13.394531 -24.707031 15.0625 -24.4375 C 15.644531 -23.726562 16.195312 -22.832031 16.71875 -21.75 C 17.257812 -20.539062 17.488281 -19.664062 17.40625 -19.125 C 16.46875 -19.457031 15.53125 -19.789062 14.59375 -20.125 C 12.882812 -20.707031 11.394531 -21 10.125 -21 C 8.707031 -21 7.476562 -20.644531 6.4375 -19.9375 C 6.101562 -19.164062 5.9375 -18.582031 5.9375 -18.1875 C 5.9375 -17.457031 6.238281 -16.8125 6.84375 -16.25 C 7.21875 -15.894531 7.582031 -15.71875 7.9375 -15.71875 C 8.3125 -15.71875 8.8125 -15.988281 9.4375 -16.53125 C 10.0625 -17.070312 10.539062 -17.34375 10.875 -17.34375 C 11.351562 -16.65625 11.59375 -15.101562 11.59375 -12.6875 C 11.59375 -11 11.46875 -9.925781 11.21875 -9.46875 C 11.113281 -9.382812 11 -9.34375 10.875 -9.34375 C 10.601562 -9.34375 10.050781 -9.632812 9.21875 -10.21875 C 8.382812 -10.800781 7.757812 -11.09375 7.34375 -11.09375 C 7.007812 -11.09375 6.71875 -10.9375 6.46875 -10.625 C 6.113281 -10.164062 5.9375 -9.644531 5.9375 -9.0625 C 5.9375 -8.1875 6.195312 -7.550781 6.71875 -7.15625 C 7.820312 -6.300781 9 -5.875 10.25 -5.875 C 11.144531 -5.875 12.4375 -6.175781 14.125 -6.78125 C 15.8125 -7.382812 17.09375 -7.675781 17.96875 -7.65625 C 17.96875 -6.488281 17.738281 -5.082031 17.28125 -3.4375 C 16.820312 -1.789062 16.320312 -0.644531 15.78125 0 Z M 0 0 "/></g></g></g></g></g></g></svg>