<svg xmlns="http://www.w3.org/2000/svg" xmlns:xlink="http://www.w3.org/1999/xlink" width="250" zoomAndPan="magnify" viewBox="0 0 187.5 37.5" height="50" preserveAspectRatio="xMidYMid meet" version="1.0"><defs><g/><clipPath id="90ea459d65"><path d="M 0.988281 0 L 186.019531 0 L 186.019531 37.007812 L 0.988281 37.007812 Z M 0.988281 0 " clip-rule="nonzero"/></clipPath></defs><g clip-path="url(#90ea459d65)"><path fill="#ffffff" d="M 0.988281 0 L 186.019531 0 L 186.019531 37.007812 L 0.988281 37.007812 Z M 0.988281 0 " fill-opacity="1" fill-rule="nonzero"/><path fill="#ffffff" d="M 0.988281 0 L 186.019531 0 L 186.019531 37.007812 L 0.988281 37.007812 Z M 0.988281 0 " fill-opacity="1" fill-rule="nonzero"/></g><g fill="#000000" fill-opacity="1"><g transform="translate(9.556178, 20.335867)"><g><path d="M 0 0 C 0 -1.164062 0.0625 -2.375 0.1875 -3.625 C 0.3125 -4.875 0.421875 -5.539062 0.515625 -5.625 C 0.566406 -5.625 0.671875 -5.53125 0.828125 -5.34375 C 0.984375 -5.15625 1.128906 -5.0625 1.265625 -5.0625 C 1.359375 -5.0625 1.453125 -5.097656 1.546875 -5.171875 C 1.765625 -5.335938 1.960938 -6.226562 2.140625 -7.84375 C 2.273438 -9.15625 2.34375 -10.140625 2.34375 -10.796875 C 2.34375 -11.597656 2.289062 -12.71875 2.1875 -14.15625 C 2.050781 -16.070312 1.878906 -17.082031 1.671875 -17.1875 C 1.617188 -17.21875 1.554688 -17.234375 1.484375 -17.234375 C 1.378906 -17.234375 1.242188 -17.164062 1.078125 -17.03125 C 0.921875 -16.894531 0.8125 -16.828125 0.75 -16.828125 C 0.695312 -16.828125 0.644531 -16.847656 0.59375 -16.890625 C 0.5 -17.023438 0.390625 -17.375 0.265625 -17.9375 C 0.140625 -18.5 0.078125 -18.976562 0.078125 -19.375 C 0.078125 -19.632812 0.109375 -19.800781 0.171875 -19.875 C 0.335938 -20.03125 1.164062 -20.207031 2.65625 -20.40625 C 4.382812 -20.625 6.144531 -20.734375 7.9375 -20.734375 C 9.632812 -20.734375 11.175781 -20.625 12.5625 -20.40625 C 13.050781 -19.800781 13.515625 -19.046875 13.953125 -18.140625 C 14.398438 -17.140625 14.59375 -16.410156 14.53125 -15.953125 C 13.75 -16.234375 12.960938 -16.515625 12.171875 -16.796875 C 10.742188 -17.273438 9.503906 -17.515625 8.453125 -17.515625 C 7.265625 -17.515625 6.238281 -17.222656 5.375 -16.640625 C 5.09375 -15.992188 4.953125 -15.503906 4.953125 -15.171875 C 4.953125 -14.566406 5.207031 -14.03125 5.71875 -13.5625 C 6.019531 -13.257812 6.320312 -13.109375 6.625 -13.109375 C 6.9375 -13.109375 7.351562 -13.335938 7.875 -13.796875 C 8.394531 -14.253906 8.796875 -14.484375 9.078125 -14.484375 C 9.472656 -13.898438 9.671875 -12.597656 9.671875 -10.578125 C 9.671875 -9.179688 9.566406 -8.289062 9.359375 -7.90625 C 9.273438 -7.832031 9.179688 -7.796875 9.078125 -7.796875 C 8.847656 -7.796875 8.382812 -8.035156 7.6875 -8.515625 C 6.988281 -9.003906 6.46875 -9.25 6.125 -9.25 C 5.851562 -9.25 5.613281 -9.117188 5.40625 -8.859375 C 5.101562 -8.460938 4.953125 -7.976562 4.953125 -7.40625 C 4.953125 -6.519531 5.160156 -5.910156 5.578125 -5.578125 C 5.722656 -5.472656 5.890625 -5.421875 6.078125 -5.421875 C 6.265625 -5.421875 6.53125 -5.507812 6.875 -5.6875 C 7.21875 -5.863281 7.4375 -5.941406 7.53125 -5.921875 C 8.25 -4.359375 8.609375 -2.625 8.609375 -0.71875 C 8.609375 -0.445312 8.59375 -0.207031 8.5625 0 Z M 0 0 "/></g></g></g><g fill="#000000" fill-opacity="1"><g transform="translate(25.784106, 20.335867)"><g><path d="M 0 0 C 0 -1.164062 0.0625 -2.375 0.1875 -3.625 C 0.3125 -4.875 0.421875 -5.539062 0.515625 -5.625 C 0.566406 -5.625 0.671875 -5.53125 0.828125 -5.34375 C 0.984375 -5.15625 1.128906 -5.0625 1.265625 -5.0625 C 1.359375 -5.0625 1.453125 -5.097656 1.546875 -5.171875 C 1.765625 -5.335938 1.960938 -6.226562 2.140625 -7.84375 C 2.273438 -9.15625 2.34375 -10.140625 2.34375 -10.796875 C 2.34375 -11.597656 2.289062 -12.71875 2.1875 -14.15625 C 2.050781 -16.070312 1.878906 -17.082031 1.671875 -17.1875 C 1.617188 -17.21875 1.554688 -17.234375 1.484375 -17.234375 C 1.378906 -17.234375 1.242188 -17.164062 1.078125 -17.03125 C 0.921875 -16.894531 0.8125 -16.828125 0.75 -16.828125 C 0.695312 -16.828125 0.644531 -16.847656 0.59375 -16.890625 C 0.5 -17.023438 0.394531 -17.378906 0.28125 -17.953125 C 0.164062 -18.523438 0.109375 -19.007812 0.109375 -19.40625 C 0.109375 -19.644531 0.128906 -19.800781 0.171875 -19.875 C 0.304688 -20.039062 0.96875 -20.222656 2.15625 -20.421875 C 3.351562 -20.628906 4.3125 -20.710938 5.03125 -20.671875 C 7.332031 -20.578125 9.082031 -20.273438 10.28125 -19.765625 C 12.632812 -18.773438 13.78125 -16.984375 13.71875 -14.390625 C 13.644531 -11.566406 12.628906 -9.96875 10.671875 -9.59375 C 11.421875 -9.070312 12.0625 -8.363281 12.59375 -7.46875 C 12.84375 -7.007812 13.097656 -6.5625 13.359375 -6.125 C 13.472656 -6.039062 13.582031 -6 13.6875 -6 C 13.789062 -6 13.898438 -6.078125 14.015625 -6.234375 C 14.140625 -6.390625 14.253906 -6.46875 14.359375 -6.46875 C 14.691406 -5.84375 14.894531 -4.789062 14.96875 -3.3125 C 14.96875 -2.375 14.976562 -1.441406 15 -0.515625 C 14.457031 -0.171875 13.210938 0 11.265625 0 C 10.609375 -2.40625 9.738281 -4.394531 8.65625 -5.96875 C 7.769531 -7.257812 6.972656 -8.015625 6.265625 -8.234375 C 6.265625 -7.265625 6.140625 -5.910156 5.890625 -4.171875 C 5.648438 -2.429688 5.375 -1.039062 5.0625 0 Z M 5.46875 -14.859375 C 5.851562 -13.003906 6.75 -12.082031 8.15625 -12.09375 C 9.207031 -12.09375 9.941406 -12.363281 10.359375 -12.90625 C 10.671875 -13.320312 10.828125 -13.972656 10.828125 -14.859375 C 10.828125 -15.617188 10.5625 -16.257812 10.03125 -16.78125 C 9.507812 -17.3125 8.882812 -17.601562 8.15625 -17.65625 C 6.25 -17.757812 5.296875 -17.226562 5.296875 -16.0625 C 5.296875 -15.851562 5.351562 -15.453125 5.46875 -14.859375 Z M 5.46875 -14.859375 "/></g></g></g><g fill="#000000" fill-opacity="1"><g transform="translate(43.030257, 20.335867)"><g><path d="M 0 0 C 0 -1.164062 0.0625 -2.375 0.1875 -3.625 C 0.3125 -4.875 0.421875 -5.539062 0.515625 -5.625 C 0.566406 -5.625 0.671875 -5.53125 0.828125 -5.34375 C 0.984375 -5.15625 1.128906 -5.0625 1.265625 -5.0625 C 1.359375 -5.0625 1.453125 -5.097656 1.546875 -5.171875 C 1.765625 -5.335938 1.960938 -6.226562 2.140625 -7.84375 C 2.273438 -9.15625 2.34375 -10.140625 2.34375 -10.796875 C 2.34375 -11.597656 2.289062 -12.71875 2.1875 -14.15625 C 2.050781 -16.070312 1.878906 -17.082031 1.671875 -17.1875 C 1.617188 -17.21875 1.554688 -17.234375 1.484375 -17.234375 C 1.378906 -17.234375 1.242188 -17.164062 1.078125 -17.03125 C 0.921875 -16.894531 0.8125 -16.828125 0.75 -16.828125 C 0.695312 -16.828125 0.644531 -16.847656 0.59375 -16.890625 C 0.5 -17.023438 0.390625 -17.375 0.265625 -17.9375 C 0.140625 -18.5 0.078125 -18.976562 0.078125 -19.375 C 0.078125 -19.632812 0.109375 -19.800781 0.171875 -19.875 C 0.335938 -20.03125 1.164062 -20.207031 2.65625 -20.40625 C 4.382812 -20.625 6.144531 -20.734375 7.9375 -20.734375 C 9.632812 -20.734375 11.175781 -20.625 12.5625 -20.40625 C 13.050781 -19.800781 13.515625 -19.046875 13.953125 -18.140625 C 14.398438 -17.140625 14.59375 -16.410156 14.53125 -15.953125 C 13.75 -16.234375 12.960938 -16.515625 12.171875 -16.796875 C 10.742188 -17.273438 9.503906 -17.515625 8.453125 -17.515625 C 7.265625 -17.515625 6.238281 -17.222656 5.375 -16.640625 C 5.09375 -15.992188 4.953125 -15.503906 4.953125 -15.171875 C 4.953125 -14.566406 5.207031 -14.03125 5.71875 -13.5625 C 6.019531 -13.257812 6.320312 -13.109375 6.625 -13.109375 C 6.9375 -13.109375 7.351562 -13.335938 7.875 -13.796875 C 8.394531 -14.253906 8.796875 -14.484375 9.078125 -14.484375 C 9.472656 -13.898438 9.671875 -12.597656 9.671875 -10.578125 C 9.671875 -9.179688 9.566406 -8.289062 9.359375 -7.90625 C 9.273438 -7.832031 9.179688 -7.796875 9.078125 -7.796875 C 8.847656 -7.796875 8.382812 -8.035156 7.6875 -8.515625 C 6.988281 -9.003906 6.46875 -9.25 6.125 -9.25 C 5.851562 -9.25 5.613281 -9.117188 5.40625 -8.859375 C 5.101562 -8.484375 4.953125 -8.050781 4.953125 -7.5625 C 4.953125 -6.832031 5.171875 -6.300781 5.609375 -5.96875 C 6.523438 -5.257812 7.507812 -4.90625 8.5625 -4.90625 C 9.300781 -4.90625 10.375 -5.15625 11.78125 -5.65625 C 13.195312 -6.164062 14.269531 -6.410156 15 -6.390625 C 15 -5.410156 14.804688 -4.234375 14.421875 -2.859375 C 14.035156 -1.484375 13.617188 -0.53125 13.171875 0 Z M 0 0 "/></g></g></g><g fill="#000000" fill-opacity="1"><g transform="translate(59.729114, 20.335867)"><g><path d="M 0 0 C 0 -1.164062 0.0625 -2.375 0.1875 -3.625 C 0.3125 -4.875 0.421875 -5.539062 0.515625 -5.625 C 0.566406 -5.625 0.671875 -5.53125 0.828125 -5.34375 C 0.984375 -5.15625 1.128906 -5.0625 1.265625 -5.0625 C 1.359375 -5.0625 1.453125 -5.097656 1.546875 -5.171875 C 1.765625 -5.335938 1.960938 -6.226562 2.140625 -7.84375 C 2.273438 -9.15625 2.34375 -10.140625 2.34375 -10.796875 C 2.34375 -11.597656 2.289062 -12.71875 2.1875 -14.15625 C 2.050781 -16.070312 1.878906 -17.082031 1.671875 -17.1875 C 1.617188 -17.21875 1.554688 -17.234375 1.484375 -17.234375 C 1.378906 -17.234375 1.242188 -17.164062 1.078125 -17.03125 C 0.921875 -16.894531 0.8125 -16.828125 0.75 -16.828125 C 0.695312 -16.828125 0.644531 -16.847656 0.59375 -16.890625 C 0.5 -17.023438 0.390625 -17.375 0.265625 -17.9375 C 0.140625 -18.5 0.078125 -18.976562 0.078125 -19.375 C 0.078125 -19.632812 0.109375 -19.800781 0.171875 -19.875 C 0.335938 -20.03125 1.164062 -20.207031 2.65625 -20.40625 C 4.382812 -20.625 6.144531 -20.734375 7.9375 -20.734375 C 9.632812 -20.734375 11.175781 -20.625 12.5625 -20.40625 C 13.050781 -19.800781 13.515625 -19.046875 13.953125 -18.140625 C 14.398438 -17.140625 14.59375 -16.410156 14.53125 -15.953125 C 13.75 -16.234375 12.960938 -16.515625 12.171875 -16.796875 C 10.742188 -17.273438 9.503906 -17.515625 8.453125 -17.515625 C 7.265625 -17.515625 6.238281 -17.222656 5.375 -16.640625 C 5.09375 -15.992188 4.953125 -15.503906 4.953125 -15.171875 C 4.953125 -14.566406 5.207031 -14.03125 5.71875 -13.5625 C 6.019531 -13.257812 6.320312 -13.109375 6.625 -13.109375 C 6.9375 -13.109375 7.351562 -13.335938 7.875 -13.796875 C 8.394531 -14.253906 8.796875 -14.484375 9.078125 -14.484375 C 9.472656 -13.898438 9.671875 -12.597656 9.671875 -10.578125 C 9.671875 -9.179688 9.566406 -8.289062 9.359375 -7.90625 C 9.273438 -7.832031 9.179688 -7.796875 9.078125 -7.796875 C 8.847656 -7.796875 8.382812 -8.035156 7.6875 -8.515625 C 6.988281 -9.003906 6.46875 -9.25 6.125 -9.25 C 5.851562 -9.25 5.613281 -9.117188 5.40625 -8.859375 C 5.101562 -8.484375 4.953125 -8.050781 4.953125 -7.5625 C 4.953125 -6.832031 5.171875 -6.300781 5.609375 -5.96875 C 6.523438 -5.257812 7.507812 -4.90625 8.5625 -4.90625 C 9.300781 -4.90625 10.375 -5.15625 11.78125 -5.65625 C 13.195312 -6.164062 14.269531 -6.410156 15 -6.390625 C 15 -5.410156 14.804688 -4.234375 14.421875 -2.859375 C 14.035156 -1.484375 13.617188 -0.53125 13.171875 0 Z M 0 0 "/></g></g></g><g fill="#000000" fill-opacity="1"><g transform="translate(76.427971, 20.335867)"><g><path d="M 0 0 C 0 -1.164062 0.0625 -2.375 0.1875 -3.625 C 0.3125 -4.875 0.421875 -5.539062 0.515625 -5.625 C 0.566406 -5.625 0.671875 -5.53125 0.828125 -5.34375 C 0.984375 -5.15625 1.128906 -5.0625 1.265625 -5.0625 C 1.359375 -5.0625 1.453125 -5.097656 1.546875 -5.171875 C 1.765625 -5.335938 1.945312 -6.226562 2.09375 -7.84375 C 2.1875 -9.03125 2.234375 -10.003906 2.234375 -10.765625 C 2.234375 -11.535156 2.1875 -12.609375 2.09375 -13.984375 C 1.945312 -15.773438 1.769531 -16.722656 1.5625 -16.828125 C 1.507812 -16.859375 1.453125 -16.875 1.390625 -16.875 C 1.273438 -16.875 1.132812 -16.800781 0.96875 -16.65625 C 0.800781 -16.519531 0.695312 -16.453125 0.65625 -16.453125 C 0.601562 -16.453125 0.550781 -16.476562 0.5 -16.53125 C 0.394531 -16.675781 0.289062 -17.078125 0.1875 -17.734375 C 0.09375 -18.390625 0.046875 -18.972656 0.046875 -19.484375 C 0.046875 -19.898438 0.0820312 -20.140625 0.15625 -20.203125 C 0.300781 -20.347656 0.894531 -20.488281 1.9375 -20.625 C 2.988281 -20.757812 3.992188 -20.828125 4.953125 -20.828125 C 5.679688 -20.828125 6.242188 -20.773438 6.640625 -20.671875 C 7.078125 -19.265625 7.296875 -18.15625 7.296875 -17.34375 C 7.296875 -17.113281 7.269531 -16.941406 7.21875 -16.828125 C 7.113281 -16.828125 6.910156 -16.863281 6.609375 -16.9375 C 6.304688 -17.007812 6.078125 -17.046875 5.921875 -17.046875 C 5.742188 -17.046875 5.613281 -17.003906 5.53125 -16.921875 C 5.40625 -16.785156 5.34375 -16.03125 5.34375 -14.65625 C 5.34375 -12.832031 5.4375 -11.015625 5.625 -9.203125 C 5.84375 -7.097656 6.113281 -5.921875 6.4375 -5.671875 C 7.300781 -5.023438 8.171875 -4.703125 9.046875 -4.703125 C 9.703125 -4.703125 10.664062 -4.988281 11.9375 -5.5625 C 13.207031 -6.132812 14.226562 -6.410156 15 -6.390625 C 15 -5.410156 14.804688 -4.234375 14.421875 -2.859375 C 14.035156 -1.484375 13.617188 -0.53125 13.171875 0 Z M 0 0 "/></g></g></g><g fill="#000000" fill-opacity="1"><g transform="translate(93.22865, 20.335867)"><g><path d="M 14.34375 0 C 13.789062 0 12.773438 -0.0078125 11.296875 -0.03125 C 9.816406 -0.03125 8.910156 -0.03125 8.578125 -0.03125 C 8.578125 -0.425781 8.695312 -0.953125 8.9375 -1.609375 C 9.25 -2.410156 9.429688 -2.925781 9.484375 -3.15625 C 9.546875 -3.394531 9.578125 -3.65625 9.578125 -3.9375 C 9.578125 -4.863281 9.285156 -5.328125 8.703125 -5.328125 C 8.054688 -5.328125 7.507812 -5.007812 7.0625 -4.375 C 6.632812 -4.988281 6.226562 -5.296875 5.84375 -5.296875 C 5.5625 -5.296875 5.347656 -5.148438 5.203125 -4.859375 C 5.054688 -4.578125 4.984375 -4.285156 4.984375 -3.984375 C 4.984375 -3.742188 5.015625 -3.441406 5.078125 -3.078125 C 5.097656 -3.003906 5.25 -2.550781 5.53125 -1.71875 C 5.769531 -1.039062 5.890625 -0.46875 5.890625 0 L 0 0 C 0 -0.5625 0.0507812 -1.796875 0.15625 -3.703125 C 0.257812 -5.847656 0.359375 -6.960938 0.453125 -7.046875 C 0.484375 -7.046875 0.601562 -6.929688 0.8125 -6.703125 C 1.019531 -6.472656 1.195312 -6.359375 1.34375 -6.359375 C 1.476562 -6.359375 1.59375 -6.410156 1.6875 -6.515625 C 1.96875 -6.816406 2.414062 -7.929688 3.03125 -9.859375 C 3.695312 -11.992188 4.03125 -13.660156 4.03125 -14.859375 C 4.03125 -15.921875 3.738281 -16.453125 3.15625 -16.453125 C 2.875 -16.453125 2.492188 -16.332031 2.015625 -16.09375 C 1.472656 -15.8125 1.132812 -15.65625 1 -15.625 C 1 -16.019531 1.09375 -16.726562 1.28125 -17.75 C 1.46875 -18.78125 1.640625 -19.5 1.796875 -19.90625 C 3.234375 -20.539062 4.804688 -20.859375 6.515625 -20.859375 C 9.054688 -20.859375 10.882812 -20.554688 12 -19.953125 C 12.238281 -19.472656 12.484375 -18.769531 12.734375 -17.84375 C 12.984375 -16.914062 13.109375 -16.257812 13.109375 -15.875 C 12.867188 -15.925781 12.5625 -16.039062 12.1875 -16.21875 C 11.8125 -16.394531 11.53125 -16.484375 11.34375 -16.484375 C 11.1875 -16.484375 11.019531 -16.4375 10.84375 -16.34375 C 10.476562 -16.15625 10.296875 -15.632812 10.296875 -14.78125 C 10.296875 -13.582031 10.632812 -11.914062 11.3125 -9.78125 C 11.945312 -7.851562 12.390625 -6.789062 12.640625 -6.59375 C 12.734375 -6.53125 12.820312 -6.5 12.90625 -6.5 C 13.039062 -6.5 13.195312 -6.585938 13.375 -6.765625 C 13.5625 -6.953125 13.679688 -7.046875 13.734375 -7.046875 C 13.828125 -6.941406 13.960938 -5.867188 14.140625 -3.828125 C 14.273438 -1.921875 14.34375 -0.644531 14.34375 0 Z M 8.453125 -7.4375 C 8.472656 -7.46875 8.484375 -7.523438 8.484375 -7.609375 C 8.484375 -8.015625 8.300781 -8.867188 7.9375 -10.171875 C 7.582031 -11.390625 7.265625 -12.351562 6.984375 -13.0625 C 6.722656 -12.164062 6.453125 -11.265625 6.171875 -10.359375 C 5.828125 -9.109375 5.65625 -8.253906 5.65625 -7.796875 C 5.65625 -7.617188 5.6875 -7.5 5.75 -7.4375 C 5.863281 -7.257812 6.054688 -7.144531 6.328125 -7.09375 C 6.609375 -7.039062 6.863281 -6.910156 7.09375 -6.703125 C 7.375 -6.910156 7.671875 -7.066406 7.984375 -7.171875 C 8.222656 -7.234375 8.378906 -7.320312 8.453125 -7.4375 Z M 8.453125 -7.4375 "/></g></g></g><g fill="#000000" fill-opacity="1"><g transform="translate(109.278389, 20.335867)"><g><path d="M 10.5 -20.515625 C 10.726562 -20.671875 11.125 -20.75 11.6875 -20.75 C 12.269531 -20.75 12.972656 -20.664062 13.796875 -20.5 C 14.453125 -20.34375 14.867188 -20.21875 15.046875 -20.125 C 15.171875 -19.914062 15.234375 -19.617188 15.234375 -19.234375 C 15.234375 -18.835938 15.148438 -18.253906 14.984375 -17.484375 C 14.816406 -16.722656 14.734375 -16.273438 14.734375 -16.140625 C 14.648438 -16.140625 14.507812 -16.242188 14.3125 -16.453125 C 14.125 -16.660156 14 -16.765625 13.9375 -16.765625 C 13.507812 -16.765625 13.203125 -16.003906 13.015625 -14.484375 C 12.890625 -13.503906 12.828125 -12.5625 12.828125 -11.65625 C 12.828125 -10.46875 12.882812 -9.351562 13 -8.3125 C 13.113281 -7.269531 13.242188 -6.695312 13.390625 -6.59375 C 13.472656 -6.53125 13.554688 -6.5 13.640625 -6.5 C 13.773438 -6.5 13.929688 -6.585938 14.109375 -6.765625 C 14.296875 -6.953125 14.421875 -7.046875 14.484375 -7.046875 C 14.566406 -6.941406 14.691406 -5.867188 14.859375 -3.828125 C 15.003906 -1.921875 15.078125 -0.644531 15.078125 0 C 14.515625 0 13.492188 0.0078125 12.015625 0.03125 C 10.546875 0.03125 9.644531 0.03125 9.3125 0.03125 C 9.03125 -0.601562 8.878906 -1.535156 8.859375 -2.765625 C 8.859375 -2.398438 8.882812 -3.363281 8.9375 -5.65625 C 8.96875 -6.90625 8.585938 -8.40625 7.796875 -10.15625 C 7.046875 -11.8125 6.476562 -12.546875 6.09375 -12.359375 C 5.863281 -12.234375 5.75 -11.6875 5.75 -10.71875 C 5.75 -9.863281 5.84375 -8.707031 6.03125 -7.25 C 6.21875 -5.800781 6.3125 -4.4375 6.3125 -3.15625 C 6.3125 -1.644531 6.171875 -0.59375 5.890625 0 L 0 0 C 0 -0.5625 0.0507812 -1.796875 0.15625 -3.703125 C 0.257812 -5.847656 0.359375 -6.960938 0.453125 -7.046875 C 0.484375 -7.046875 0.601562 -6.929688 0.8125 -6.703125 C 1.019531 -6.472656 1.195312 -6.359375 1.34375 -6.359375 C 1.476562 -6.359375 1.59375 -6.410156 1.6875 -6.515625 C 1.875 -6.710938 2.054688 -7.460938 2.234375 -8.765625 C 2.453125 -10.148438 2.5625 -11.488281 2.5625 -12.78125 C 2.5625 -13.414062 2.503906 -14.09375 2.390625 -14.8125 C 2.242188 -15.925781 2.003906 -16.484375 1.671875 -16.484375 C 1.585938 -16.484375 1.425781 -16.382812 1.1875 -16.1875 C 0.957031 -16 0.785156 -15.90625 0.671875 -15.90625 C 0.328125 -17.070312 0.15625 -18.082031 0.15625 -18.9375 C 0.15625 -19.414062 0.234375 -19.769531 0.390625 -20 C 0.597656 -20.101562 1.039062 -20.238281 1.71875 -20.40625 C 2.59375 -20.601562 3.316406 -20.703125 3.890625 -20.703125 C 4.390625 -20.703125 4.734375 -20.617188 4.921875 -20.453125 C 5.203125 -20.203125 5.625 -19.445312 6.1875 -18.1875 C 6.757812 -16.925781 7.300781 -16.113281 7.8125 -15.75 C 8.132812 -15.519531 8.414062 -15.40625 8.65625 -15.40625 C 9.09375 -15.40625 9.414062 -15.804688 9.625 -16.609375 C 9.695312 -16.867188 9.816406 -17.644531 9.984375 -18.9375 C 10.109375 -19.832031 10.28125 -20.359375 10.5 -20.515625 Z M 10.5 -20.515625 "/></g></g></g><g fill="#000000" fill-opacity="1"><g transform="translate(125.977246, 20.335867)"><g><path d="M 14.15625 -16.6875 C 13.988281 -16.289062 13.328125 -15.429688 12.171875 -14.109375 C 12.035156 -14.171875 11.832031 -14.375 11.5625 -14.71875 C 11.300781 -15.0625 11.03125 -15.304688 10.75 -15.453125 C 10.28125 -15.722656 9.679688 -15.863281 8.953125 -15.875 C 8.128906 -15.894531 7.289062 -15.460938 6.4375 -14.578125 C 5.363281 -13.453125 4.859375 -11.96875 4.921875 -10.125 C 4.972656 -8.4375 5.5 -7.128906 6.5 -6.203125 C 7.226562 -5.515625 7.957031 -5.1875 8.6875 -5.21875 C 9.445312 -5.25 10.007812 -5.394531 10.375 -5.65625 C 10.601562 -5.800781 10.882812 -6.128906 11.21875 -6.640625 C 11.550781 -7.148438 11.914062 -7.582031 12.3125 -7.9375 C 13.34375 -7.03125 14.023438 -6.234375 14.359375 -5.546875 C 13.984375 -5.148438 13.4375 -4.351562 12.71875 -3.15625 C 12.113281 -2.113281 11.515625 -1.375 10.921875 -0.9375 C 10.035156 -0.257812 8.863281 0.09375 7.40625 0.125 C 5.375 0.175781 3.625 -0.800781 2.15625 -2.8125 C 0.695312 -4.832031 -0.03125 -7.269531 -0.03125 -10.125 C -0.03125 -13.007812 0.648438 -15.414062 2.015625 -17.34375 C 3.398438 -19.351562 5.195312 -20.347656 7.40625 -20.328125 C 8.675781 -20.328125 9.820312 -20.035156 10.84375 -19.453125 C 11.476562 -19.078125 12.164062 -18.515625 12.90625 -17.765625 C 13.539062 -17.097656 13.957031 -16.738281 14.15625 -16.6875 Z M 14.15625 -16.6875 "/></g></g></g><g fill="#000000" fill-opacity="1"><g transform="translate(141.65788, 20.335867)"><g><path d="M 0 0 C 0 -1.164062 0.0625 -2.375 0.1875 -3.625 C 0.3125 -4.875 0.421875 -5.539062 0.515625 -5.625 C 0.566406 -5.625 0.695312 -5.53125 0.90625 -5.34375 C 1.113281 -5.15625 1.300781 -5.0625 1.46875 -5.0625 C 1.5625 -5.0625 1.65625 -5.097656 1.75 -5.171875 C 1.9375 -5.328125 2.144531 -6.140625 2.375 -7.609375 C 2.5625 -9.003906 2.65625 -10.132812 2.65625 -11 C 2.65625 -11.488281 2.5625 -11.734375 2.375 -11.734375 C 2.300781 -11.734375 2.144531 -11.660156 1.90625 -11.515625 C 1.675781 -11.378906 1.503906 -11.335938 1.390625 -11.390625 C 1.328125 -11.515625 1.296875 -11.722656 1.296875 -12.015625 C 1.296875 -13.046875 1.453125 -13.882812 1.765625 -14.53125 C 3.359375 -15.28125 4.578125 -15.65625 5.421875 -15.65625 C 6.515625 -15.65625 7.0625 -15 7.0625 -13.6875 C 7.0625 -13.039062 6.878906 -11.925781 6.515625 -10.34375 C 6.148438 -8.769531 5.96875 -7.675781 5.96875 -7.0625 C 5.96875 -6.488281 6.082031 -6.066406 6.3125 -5.796875 C 6.445312 -5.617188 6.582031 -5.53125 6.71875 -5.53125 C 6.8125 -5.53125 6.945312 -5.597656 7.125 -5.734375 C 7.300781 -5.878906 7.4375 -5.941406 7.53125 -5.921875 C 8.25 -4.359375 8.609375 -2.625 8.609375 -0.71875 C 8.609375 -0.445312 8.59375 -0.207031 8.5625 0 Z M 1.71875 -17.09375 C 1.644531 -18.21875 2.484375 -19.125 4.234375 -19.8125 C 4.429688 -19.90625 4.660156 -19.953125 4.921875 -19.953125 C 5.410156 -19.953125 5.859375 -19.804688 6.265625 -19.515625 C 6.679688 -19.234375 6.914062 -18.863281 6.96875 -18.40625 C 7.050781 -17.445312 6.492188 -16.710938 5.296875 -16.203125 C 4.734375 -15.953125 4.148438 -15.828125 3.546875 -15.828125 C 2.359375 -15.828125 1.75 -16.25 1.71875 -17.09375 Z M 1.71875 -17.09375 "/></g></g></g><g fill="#000000" fill-opacity="1"><g transform="translate(151.763743, 20.335867)"><g><path d="M 10.5 -20.515625 C 10.726562 -20.671875 11.125 -20.75 11.6875 -20.75 C 12.269531 -20.75 12.972656 -20.664062 13.796875 -20.5 C 14.453125 -20.34375 14.867188 -20.21875 15.046875 -20.125 C 15.171875 -19.914062 15.234375 -19.617188 15.234375 -19.234375 C 15.234375 -18.835938 15.148438 -18.253906 14.984375 -17.484375 C 14.816406 -16.722656 14.734375 -16.273438 14.734375 -16.140625 C 14.648438 -16.140625 14.507812 -16.242188 14.3125 -16.453125 C 14.125 -16.660156 14 -16.765625 13.9375 -16.765625 C 13.507812 -16.765625 13.203125 -16.003906 13.015625 -14.484375 C 12.890625 -13.503906 12.828125 -12.5625 12.828125 -11.65625 C 12.828125 -10.46875 12.882812 -9.351562 13 -8.3125 C 13.113281 -7.269531 13.242188 -6.695312 13.390625 -6.59375 C 13.472656 -6.53125 13.554688 -6.5 13.640625 -6.5 C 13.773438 -6.5 13.929688 -6.585938 14.109375 -6.765625 C 14.296875 -6.953125 14.421875 -7.046875 14.484375 -7.046875 C 14.566406 -6.941406 14.691406 -5.867188 14.859375 -3.828125 C 15.003906 -1.921875 15.078125 -0.644531 15.078125 0 C 14.515625 0 13.492188 0.0078125 12.015625 0.03125 C 10.546875 0.03125 9.644531 0.03125 9.3125 0.03125 C 9.03125 -0.601562 8.878906 -1.535156 8.859375 -2.765625 C 8.859375 -2.398438 8.882812 -3.363281 8.9375 -5.65625 C 8.96875 -6.90625 8.585938 -8.40625 7.796875 -10.15625 C 7.046875 -11.8125 6.476562 -12.546875 6.09375 -12.359375 C 5.863281 -12.234375 5.75 -11.6875 5.75 -10.71875 C 5.75 -9.863281 5.84375 -8.707031 6.03125 -7.25 C 6.21875 -5.800781 6.3125 -4.4375 6.3125 -3.15625 C 6.3125 -1.644531 6.171875 -0.59375 5.890625 0 L 0 0 C 0 -0.5625 0.0507812 -1.796875 0.15625 -3.703125 C 0.257812 -5.847656 0.359375 -6.960938 0.453125 -7.046875 C 0.484375 -7.046875 0.601562 -6.929688 0.8125 -6.703125 C 1.019531 -6.472656 1.195312 -6.359375 1.34375 -6.359375 C 1.476562 -6.359375 1.59375 -6.410156 1.6875 -6.515625 C 1.875 -6.710938 2.054688 -7.460938 2.234375 -8.765625 C 2.453125 -10.148438 2.5625 -11.488281 2.5625 -12.78125 C 2.5625 -13.414062 2.503906 -14.09375 2.390625 -14.8125 C 2.242188 -15.925781 2.003906 -16.484375 1.671875 -16.484375 C 1.585938 -16.484375 1.425781 -16.382812 1.1875 -16.1875 C 0.957031 -16 0.785156 -15.90625 0.671875 -15.90625 C 0.328125 -17.070312 0.15625 -18.082031 0.15625 -18.9375 C 0.15625 -19.414062 0.234375 -19.769531 0.390625 -20 C 0.597656 -20.101562 1.039062 -20.238281 1.71875 -20.40625 C 2.59375 -20.601562 3.316406 -20.703125 3.890625 -20.703125 C 4.390625 -20.703125 4.734375 -20.617188 4.921875 -20.453125 C 5.203125 -20.203125 5.625 -19.445312 6.1875 -18.1875 C 6.757812 -16.925781 7.300781 -16.113281 7.8125 -15.75 C 8.132812 -15.519531 8.414062 -15.40625 8.65625 -15.40625 C 9.09375 -15.40625 9.414062 -15.804688 9.625 -16.609375 C 9.695312 -16.867188 9.816406 -17.644531 9.984375 -18.9375 C 10.109375 -19.832031 10.28125 -20.359375 10.5 -20.515625 Z M 10.5 -20.515625 "/></g></g></g><g fill="#000000" fill-opacity="1"><g transform="translate(168.4626, 20.335867)"><g><path d="M 14.1875 -16.671875 C 14.019531 -16.265625 13.359375 -15.398438 12.203125 -14.078125 C 12.046875 -14.128906 11.832031 -14.320312 11.5625 -14.65625 C 11.300781 -15 11.03125 -15.257812 10.75 -15.4375 C 10.300781 -15.695312 9.710938 -15.835938 8.984375 -15.859375 C 8.148438 -15.859375 7.3125 -15.414062 6.46875 -14.53125 C 5.382812 -13.394531 4.878906 -11.914062 4.953125 -10.09375 C 5.003906 -8.40625 5.519531 -7.109375 6.5 -6.203125 C 7.1875 -5.566406 7.921875 -5.226562 8.703125 -5.1875 C 9.191406 -5.144531 9.925781 -5.40625 10.90625 -5.96875 C 11.039062 -6.28125 11.109375 -6.65625 11.109375 -7.09375 C 11.109375 -7.425781 11.039062 -7.695312 10.90625 -7.90625 C 10.65625 -7.957031 10.421875 -7.984375 10.203125 -7.984375 C 9.765625 -7.984375 9.21875 -7.816406 8.5625 -7.484375 C 8.394531 -7.898438 8.3125 -8.515625 8.3125 -9.328125 C 8.3125 -10.242188 8.382812 -10.875 8.53125 -11.21875 C 8.894531 -11.320312 9.351562 -11.375 9.90625 -11.375 C 11.226562 -11.375 12.421875 -11.164062 13.484375 -10.75 C 13.703125 -10.4375 13.921875 -8.867188 14.140625 -6.046875 C 14.304688 -3.828125 14.390625 -2.300781 14.390625 -1.46875 C 14.097656 -1.238281 13.515625 -0.925781 12.640625 -0.53125 C 11.773438 -0.144531 11.265625 0.046875 11.109375 0.046875 C 11.054688 -0.285156 11.035156 -0.5625 11.046875 -0.78125 C 10.765625 -0.644531 10.28125 -0.488281 9.59375 -0.3125 C 8.707031 -0.0703125 7.976562 0.046875 7.40625 0.046875 C 5.332031 0.046875 3.578125 -0.929688 2.140625 -2.890625 C 0.710938 -4.859375 0 -7.253906 0 -10.078125 C 0 -12.972656 0.671875 -15.382812 2.015625 -17.3125 C 3.421875 -19.3125 5.226562 -20.3125 7.4375 -20.3125 C 8.6875 -20.289062 9.820312 -19.988281 10.84375 -19.40625 C 11.488281 -19.039062 12.175781 -18.476562 12.90625 -17.71875 C 13.550781 -17.070312 13.976562 -16.722656 14.1875 -16.671875 Z M 14.1875 -16.671875 "/></g></g></g></svg>